<?xml version="1.0" encoding="UTF-8"?>
<svg version="1.1" xmlns="http://www.w3.org/2000/svg" width="107" height="106">
<path d="M0 0 C5.7097698 3.65597313 8.98513458 8.95092068 11.07421875 15.328125 C11.93732158 19.90801301 12.41935976 23.81375023 11.07421875 28.328125 C8.65064718 27.38586075 6.28179968 26.43325841 3.9609375 25.2578125 C-4.35718003 21.268662 -14.14477992 20.60190478 -23 23.24609375 C-28.30791793 25.69773297 -31.47008979 28.6845396 -34.92578125 33.328125 C-35.58578125 33.328125 -36.24578125 33.328125 -36.92578125 33.328125 C-37.73250746 21.74264033 -35.0118005 13.23447608 -27.70703125 4.203125 C-20.05293301 -3.85382052 -9.73144351 -4.82326345 0 0 Z " fill="#162D68" transform="translate(39.92578125,18.671875)"/>
<path d="M0 0 C9.53591901 3.58003785 13.23108458 9.58446048 17.6171875 18.46484375 C20.20478088 25.08001892 20.28942454 29.94422637 18.08203125 36.56640625 C15.58950295 42.17234535 11.5582777 46.36713162 6 49 C-1.5751894 51.28715569 -9.08271429 50.68609319 -16.1171875 47.15625 C-18.44702665 45.72547741 -20.26543931 44.1116391 -22 42 C-20.75305232 39.50610463 -19.88381165 39.35426459 -17.375 38.25 C-9.36207055 34.33670887 -4.59884853 29.1792012 -1 21 C-0.18322816 18.2269424 0.11952204 15.77690975 0.09765625 12.890625 C0.09282227 11.75947266 0.09282227 11.75947266 0.08789062 10.60546875 C0.07951172 9.82816406 0.07113281 9.05085938 0.0625 8.25 C0.05798828 7.45722656 0.05347656 6.66445313 0.04882812 5.84765625 C0.03708565 3.89840492 0.01915146 1.94919262 0 0 Z " fill="#172D68" transform="translate(81,12)"/>
<path d="M0 0 C-0.06960937 1.54107422 -0.06960937 1.54107422 -0.140625 3.11328125 C-0.48220314 13.84636765 0.26647277 22.72806672 7.25 31.4375 C11.70833918 36.11635919 16.75412761 38.57355908 23 40 C23 40.66 23 41.32 23 42 C12.56818975 47.56535782 3.03666316 48.55351498 -8.44921875 45.109375 C-13.70742144 42.82249971 -16.61479208 38.87673331 -19.9375 34.375 C-22.13340589 27.39976954 -22.36372687 19.75017827 -19 13.125 C-14.71248639 6.51102305 -8.28184809 0 0 0 Z " fill="#162D67" transform="translate(52,57)"/>
<path d="M0 0 C0.66 0.33 1.32 0.66 2 1 C2.79446332 11.17354421 0.22010782 19.83610848 -6 28 C-6.598125 28.886875 -7.19625 29.77375 -7.8125 30.6875 C-11.83358641 34.93836278 -17.12896064 36.53445097 -22.89453125 37.05859375 C-29.27579622 36.88100753 -34.8156897 34.18073893 -39.4296875 29.8671875 C-43.95289832 24.48884229 -46.72408752 18.03576827 -47 11 C-46.5625 8.0625 -46.5625 8.0625 -46 6 C-42.97123156 6.65932374 -40.36285496 7.67990199 -37.5625 9 C-34.34490496 10.44399387 -31.53804667 11.64619533 -28 12 C-27.05253906 12.09474609 -27.05253906 12.09474609 -26.0859375 12.19140625 C-18.2966805 12.61802633 -10.56054278 10.36580273 -4.4375 5.4375 C-1.89377043 3.05311479 -1.89377043 3.05311479 0 0 Z " fill="#162D67" transform="translate(102,53)"/>
<path d="M0 0 C2.5 2.125 2.5 2.125 4 4 C4 4.66 4 5.32 4 6 C3.443125 6.13535156 2.88625 6.27070312 2.3125 6.41015625 C-6.02523959 8.76218752 -11.57040696 13.11710366 -15.9375 20.625 C-18.54824315 25.52788714 -19.14033455 30.04972909 -19.125 35.5625 C-19.12757812 36.49191406 -19.13015625 37.42132813 -19.1328125 38.37890625 C-19.01309964 40.74147476 -18.66993233 42.74030763 -18 45 C-18.99 45.495 -18.99 45.495 -20 46 C-29.09590023 39.90528513 -35.03759119 32.684643 -38 22 C-39.09899607 15.3387381 -37.60939845 9.67038632 -34 4 C-25.09133104 -6.59346905 -11.24552163 -7.38473194 0 0 Z " fill="#162D67" transform="translate(45,48)"/>
<path d="M0 0 C5.53211128 5.69482043 7.80370206 11.28357072 8.125 19.1875 C6.92448747 26.62225302 4.28218427 32.62876524 -1.625 37.375 C-5.29416431 40.01815725 -8.46806654 41.26938886 -12.875 42.1875 C-12.84019531 41.44886719 -12.80539063 40.71023437 -12.76953125 39.94921875 C-12.49059708 29.49582865 -13.91257087 19.41254581 -20.875 11.1875 C-25.66646905 6.66336613 -30.64463319 4.1901179 -36.875 2.1875 C-28.40697131 -8.48957966 -10.41104828 -6.56348696 0 0 Z " fill="#152C67" transform="translate(67.875,7.8125)"/>
<path d="M0 0 C0.33 0 0.66 0 1 0 C1.19477739 1.62414378 1.38059458 3.24936423 1.5625 4.875 C1.66691406 5.77992187 1.77132813 6.68484375 1.87890625 7.6171875 C2 10 2 10 1 12 C0.34 12 -0.32 12 -1 12 C-1.02687279 10.18757948 -1.04633715 8.37504767 -1.0625 6.5625 C-1.07410156 5.55316406 -1.08570313 4.54382812 -1.09765625 3.50390625 C-1 1 -1 1 0 0 Z " fill="#535A73" transform="translate(4,40)"/>
<path d="M0 0 C0.66 0.66 1.32 1.32 2 2 C1.67 2.99 1.34 3.98 1 5 C-0.65 4.67 -2.3 4.34 -4 4 C-2.68 2.68 -1.36 1.36 0 0 Z " fill="#303A5B" transform="translate(35,6)"/>
</svg>
